<svg width="18" height="18" viewBox="0 0 18 18" fill="none" xmlns="http://www.w3.org/2000/svg">
<g clip-path="url(#clip0_11_2032)">
<path d="M14.5863 8.86586C13.4817 10.779 11.0354 11.4345 9.12221 10.33C7.9642 9.66139 7.26663 8.5016 7.14172 7.26379C7.06043 6.45828 7.22199 5.62124 7.65811 4.86586C8.76268 2.95269 11.209 2.29719 13.1222 3.40176C15.0354 4.50633 15.6909 6.95269 14.5863 8.86586Z" stroke="#999999" stroke-linecap="round" stroke-linejoin="round"/>
<path d="M7.3501 8.72949L4.8501 14.2295L7.66468 15.8545L11.4254 11.0106" stroke="#999999" stroke-linecap="round" stroke-linejoin="round"/>
<path d="M14.5863 8.86586C13.4817 10.779 11.0354 11.4345 9.12221 10.33C7.9642 9.66139 7.26663 8.5016 7.14172 7.26379C7.06043 6.45828 7.22199 5.62124 7.65811 4.86586C8.76268 2.95269 11.209 2.29719 13.1222 3.40176C15.0354 4.50633 15.6909 6.95269 14.5863 8.86586Z" stroke="#999999" stroke-linecap="round" stroke-linejoin="round"/>
<path d="M7.3501 8.72949L4.8501 14.2295L7.66468 15.8545L11.4254 11.0106" stroke="#999999" stroke-linecap="round" stroke-linejoin="round"/>
</g>
<defs>
<clipPath id="clip0_11_2032">
<rect width="18" height="18" fill="white"/>
</clipPath>
</defs>
</svg>
