<svg width="20" height="20" viewBox="0 0 20 20" fill="none" xmlns="http://www.w3.org/2000/svg">
<g clip-path="url(#clip0_702_427)">
<path d="M7.57689 4.34619H5.9615C5.51542 4.34619 5.15381 4.70781 5.15381 5.15388V14.8462C5.15381 15.2923 5.51542 15.6539 5.9615 15.6539H7.57689C8.02296 15.6539 8.38458 15.2923 8.38458 14.8462V5.15388C8.38458 4.70781 8.02296 4.34619 7.57689 4.34619Z" fill="#2C2C2C"/>
<path d="M14.0384 4.34619H12.423C11.977 4.34619 11.6153 4.70781 11.6153 5.15388V14.8462C11.6153 15.2923 11.977 15.6539 12.423 15.6539H14.0384C14.4845 15.6539 14.8461 15.2923 14.8461 14.8462V5.15388C14.8461 4.70781 14.4845 4.34619 14.0384 4.34619Z" fill="#2C2C2C"/>
</g>
<defs>
<clipPath id="clip0_702_427">
<rect width="19.3846" height="19.3846" fill="white" transform="translate(0.307617 0.307739)"/>
</clipPath>
</defs>
</svg>
